<svg width="34" height="35" viewBox="0 0 34 35" fill="none" xmlns="http://www.w3.org/2000/svg">
<path d="M26.4988 18.1325C26.4988 17.4446 26.4322 16.7345 26.3212 16.0688H16.7129V19.9964H22.2161C21.9942 21.2613 21.2619 22.3708 20.1746 23.0809L23.4587 25.6328C25.3893 23.8353 26.4988 21.2169 26.4988 18.1325Z" fill="#4280EF"/>
<path d="M16.7146 28.0736C19.4662 28.0736 21.774 27.1638 23.4604 25.6105L20.1763 23.0808C19.2665 23.7022 18.0904 24.0572 16.7146 24.0572C14.0518 24.0572 11.8106 22.2598 10.9895 19.8633L7.61664 22.4595C9.34747 25.899 12.8535 28.0736 16.7146 28.0736Z" fill="#34A353"/>
<path d="M10.9887 19.8411C10.5671 18.5763 10.5671 17.2005 10.9887 15.9357L7.61577 13.3172C6.17341 16.2019 6.17341 19.597 7.61577 22.4596L10.9887 19.8411Z" fill="#F6B704"/>
<path d="M16.7146 11.7418C18.157 11.7196 19.5771 12.2744 20.6201 13.2729L23.527 10.3438C21.6852 8.61297 19.2443 7.68099 16.7146 7.70318C12.8535 7.70318 9.34747 9.87781 7.61664 13.3173L10.9895 15.9357C11.8106 13.517 14.0518 11.7418 16.7146 11.7418Z" fill="#E54335"/>
</svg>
